HIERARCHY
ROOT mixamorig:Hips
{
	OFFSET -0.000008 104.274872 1.554316
	CHANNELS 6 Xposition Yposition Zposition Xrotation Yrotation Zrotation
	JOINT mixamorig:Spine
	{
		OFFSET -0.000005 10.181595 0.131519
		CHANNELS 6 Xposition Yposition Zposition Xrotation Yrotation Zrotation
		JOINT mixamorig:Spine1
		{
			OFFSET -0.000000 9.893959 -1.470707
			CHANNELS 6 Xposition Yposition Zposition Xrotation Yrotation Zrotation
			JOINT mixamorig:Spine2
			{
				OFFSET -0.000000 9.220757 -1.370641
				CHANNELS 6 Xposition Yposition Zposition Xrotation Yrotation Zrotation
				JOINT mixamorig:Neck
				{
					OFFSET 0.000001 16.740417 -2.049036
					CHANNELS 6 Xposition Yposition Zposition Xrotation Yrotation Zrotation
					JOINT mixamorig:Head
					{
						OFFSET 0.000000 9.617874 1.685006
						CHANNELS 6 Xposition Yposition Zposition Xrotation Yrotation Zrotation
						JOINT mixamorig:HeadTop_End
						{
							OFFSET 0.000002 22.037354 7.501101
							CHANNELS 6 Xposition Yposition Zposition Xrotation Yrotation Zrotation
							End Site
							{
								OFFSET 0.000168 2310.654297 -282.823242
							}
						}
					}
				}
				JOINT mixamorig:RightShoulder
				{
					OFFSET -4.569970 11.014908 -2.160885
					CHANNELS 6 Xposition Yposition Zposition Xrotation Yrotation Zrotation
					JOINT mixamorig:RightArm
					{
						OFFSET -10.592851 -0.524811 -2.232101
						CHANNELS 6 Xposition Yposition Zposition Xrotation Yrotation Zrotation
						JOINT mixamorig:RightForeArm
						{
							OFFSET -27.841511 0.000031 -0.000004
							CHANNELS 6 Xposition Yposition Zposition Xrotation Yrotation Zrotation
							JOINT mixamorig:RightHand
							{
								OFFSET -28.328831 -0.000015 0.000015
								CHANNELS 6 Xposition Yposition Zposition Xrotation Yrotation Zrotation
								JOINT mixamorig:RightHandThumb1
								{
									OFFSET -2.464806 -1.573990 2.681852
									CHANNELS 6 Xposition Yposition Zposition Xrotation Yrotation Zrotation
									JOINT mixamorig:RightHandThumb2
									{
										OFFSET -3.215179 -1.872803 1.924282
										CHANNELS 6 Xposition Yposition Zposition Xrotation Yrotation Zrotation
										JOINT mixamorig:RightHandThumb3
										{
											OFFSET -2.654831 -1.527969 1.512609
											CHANNELS 6 Xposition Yposition Zposition Xrotation Yrotation Zrotation
											JOINT mixamorig:RightHandThumb4
											{
												OFFSET -2.018814 -1.152008 1.108052
												CHANNELS 6 Xposition Yposition Zposition Xrotation Yrotation Zrotation
												End Site
												{
													OFFSET -188.809540 -114.533607 132.431396
												}
											}
										}
									}
								}
								JOINT mixamorig:RightHandIndex1
								{
									OFFSET -9.108284 -0.517868 2.259835
									CHANNELS 6 Xposition Yposition Zposition Xrotation Yrotation Zrotation
									JOINT mixamorig:RightHandIndex2
									{
										OFFSET -3.699989 0.000000 0.001215
										CHANNELS 6 Xposition Yposition Zposition Xrotation Yrotation Zrotation
										JOINT mixamorig:RightHandIndex3
										{
											OFFSET -2.850006 0.000031 -0.000522
											CHANNELS 6 Xposition Yposition Zposition Xrotation Yrotation Zrotation
											JOINT mixamorig:RightHandIndex4
											{
												OFFSET -2.772186 -0.000015 -0.000020
												CHANNELS 6 Xposition Yposition Zposition Xrotation Yrotation Zrotation
												End Site
												{
													OFFSET -277.218445 0.000000 -0.050231
												}
											}
										}
									}
								}
								JOINT mixamorig:RightHandMiddle1
								{
									OFFSET -9.532516 -0.000031 -0.000023
									CHANNELS 6 Xposition Yposition Zposition Xrotation Yrotation Zrotation
									JOINT mixamorig:RightHandMiddle2
									{
										OFFSET -3.700005 -0.000015 0.003713
										CHANNELS 6 Xposition Yposition Zposition Xrotation Yrotation Zrotation
										JOINT mixamorig:RightHandMiddle3
										{
											OFFSET -2.949974 0.000015 -0.002054
											CHANNELS 6 Xposition Yposition Zposition Xrotation Yrotation Zrotation
											JOINT mixamorig:RightHandMiddle4
											{
												OFFSET -2.946640 0.000000 -0.000156
												CHANNELS 6 Xposition Yposition Zposition Xrotation Yrotation Zrotation
												End Site
												{
													OFFSET -294.664337 0.000000 -0.113670
												}
											}
										}
									}
								}
								JOINT mixamorig:RightHandRing1
								{
									OFFSET -9.103600 -0.043076 -1.865134
									CHANNELS 6 Xposition Yposition Zposition Xrotation Yrotation Zrotation
									JOINT mixamorig:RightHandRing2
									{
										OFFSET -3.379288 0.000000 -0.001055
										CHANNELS 6 Xposition Yposition Zposition Xrotation Yrotation Zrotation
										JOINT mixamorig:RightHandRing3
										{
											OFFSET -2.889687 -0.000015 0.000379
											CHANNELS 6 Xposition Yposition Zposition Xrotation Yrotation Zrotation
											JOINT mixamorig:RightHandRing4
											{
												OFFSET -2.638809 -0.000015 0.000941
												CHANNELS 6 Xposition Yposition Zposition Xrotation Yrotation Zrotation
												End Site
												{
													OFFSET -263.880371 0.000000 0.516020
												}
											}
										}
									}
								}
								JOINT mixamorig:RightHandPinky1
								{
									OFFSET -8.076683 -0.486710 -3.806280
									CHANNELS 6 Xposition Yposition Zposition Xrotation Yrotation Zrotation
									JOINT mixamorig:RightHandPinky2
									{
										OFFSET -3.600014 -0.000015 -0.003747
										CHANNELS 6 Xposition Yposition Zposition Xrotation Yrotation Zrotation
										JOINT mixamorig:RightHandPinky3
										{
											OFFSET -2.099983 0.000000 -0.005739
											CHANNELS 6 Xposition Yposition Zposition Xrotation Yrotation Zrotation
											JOINT mixamorig:RightHandPinky4
											{
												OFFSET -2.115768 -0.000031 -0.003680
												CHANNELS 6 Xposition Yposition Zposition Xrotation Yrotation Zrotation
												End Site
												{
													OFFSET -211.577087 0.000000 -0.350686
												}
											}
										}
									}
								}
							}
						}
					}
				}
				JOINT mixamorig:LeftShoulder
				{
					OFFSET 4.570447 11.014725 -2.160855
					CHANNELS 6 Xposition Yposition Zposition Xrotation Yrotation Zrotation
					JOINT mixamorig:LeftArm
					{
						OFFSET 10.592371 -0.524597 -2.232119
						CHANNELS 6 Xposition Yposition Zposition Xrotation Yrotation Zrotation
						JOINT mixamorig:LeftForeArm
						{
							OFFSET 27.841532 -0.000031 0.000026
							CHANNELS 6 Xposition Yposition Zposition Xrotation Yrotation Zrotation
							JOINT mixamorig:LeftHand
							{
								OFFSET 28.328846 -0.000061 0.000022
								CHANNELS 6 Xposition Yposition Zposition Xrotation Yrotation Zrotation
								JOINT mixamorig:LeftHandThumb1
								{
									OFFSET 2.466141 -1.576172 2.681732
									CHANNELS 6 Xposition Yposition Zposition Xrotation Yrotation Zrotation
									JOINT mixamorig:LeftHandThumb2
									{
										OFFSET 3.217812 -1.872070 1.916482
										CHANNELS 6 Xposition Yposition Zposition Xrotation Yrotation Zrotation
										JOINT mixamorig:LeftHandThumb3
										{
											OFFSET 2.656029 -1.528778 1.514513
											CHANNELS 6 Xposition Yposition Zposition Xrotation Yrotation Zrotation
											JOINT mixamorig:LeftHandThumb4
											{
												OFFSET 2.020889 -1.154053 1.115139
												CHANNELS 6 Xposition Yposition Zposition Xrotation Yrotation Zrotation
												End Site
												{
													OFFSET 190.885437 -115.081749 130.048782
												}
											}
										}
									}
								}
								JOINT mixamorig:LeftHandIndex1
								{
									OFFSET 9.109314 -0.518021 2.259871
									CHANNELS 6 Xposition Yposition Zposition Xrotation Yrotation Zrotation
									JOINT mixamorig:LeftHandIndex2
									{
										OFFSET 3.699989 0.000000 -0.000322
										CHANNELS 6 Xposition Yposition Zposition Xrotation Yrotation Zrotation
										JOINT mixamorig:LeftHandIndex3
										{
											OFFSET 2.850006 0.000000 0.000352
											CHANNELS 6 Xposition Yposition Zposition Xrotation Yrotation Zrotation
											JOINT mixamorig:LeftHandIndex4
											{
												OFFSET 2.774864 -0.000031 -0.000027
												CHANNELS 6 Xposition Yposition Zposition Xrotation Yrotation Zrotation
												End Site
												{
													OFFSET 277.486267 0.000000 -0.009857
												}
											}
										}
									}
								}
								JOINT mixamorig:LeftHandMiddle1
								{
									OFFSET 9.533394 0.000061 0.000044
									CHANNELS 6 Xposition Yposition Zposition Xrotation Yrotation Zrotation
									JOINT mixamorig:LeftHandMiddle2
									{
										OFFSET 3.699989 -0.000015 -0.000231
										CHANNELS 6 Xposition Yposition Zposition Xrotation Yrotation Zrotation
										JOINT mixamorig:LeftHandMiddle3
										{
											OFFSET 2.949997 -0.000015 -0.000059
											CHANNELS 6 Xposition Yposition Zposition Xrotation Yrotation Zrotation
											JOINT mixamorig:LeftHandMiddle4
											{
												OFFSET 2.952896 0.000031 0.000063
												CHANNELS 6 Xposition Yposition Zposition Xrotation Yrotation Zrotation
												End Site
												{
													OFFSET 295.289337 0.000000 0.022810
												}
											}
										}
									}
								}
								JOINT mixamorig:LeftHandRing1
								{
									OFFSET 9.104523 -0.042999 -1.865074
									CHANNELS 6 Xposition Yposition Zposition Xrotation Yrotation Zrotation
									JOINT mixamorig:LeftHandRing2
									{
										OFFSET 3.150009 -0.000031 0.000043
										CHANNELS 6 Xposition Yposition Zposition Xrotation Yrotation Zrotation
										JOINT mixamorig:LeftHandRing3
										{
											OFFSET 2.949982 -0.000015 0.000040
											CHANNELS 6 Xposition Yposition Zposition Xrotation Yrotation Zrotation
											JOINT mixamorig:LeftHandRing4
											{
												OFFSET 2.644348 0.000000 0.000057
												CHANNELS 6 Xposition Yposition Zposition Xrotation Yrotation Zrotation
												End Site
												{
													OFFSET 264.434631 0.000000 0.012105
												}
											}
										}
									}
								}
								JOINT mixamorig:LeftHandPinky1
								{
									OFFSET 8.077789 -0.486847 -3.806259
									CHANNELS 6 Xposition Yposition Zposition Xrotation Yrotation Zrotation
									JOINT mixamorig:LeftHandPinky2
									{
										OFFSET 3.599953 0.000031 0.014727
										CHANNELS 6 Xposition Yposition Zposition Xrotation Yrotation Zrotation
										JOINT mixamorig:LeftHandPinky3
										{
											OFFSET 2.100021 0.000015 0.007705
											CHANNELS 6 Xposition Yposition Zposition Xrotation Yrotation Zrotation
											JOINT mixamorig:LeftHandPinky4
											{
												OFFSET 2.125504 0.000031 0.007517
												CHANNELS 6 Xposition Yposition Zposition Xrotation Yrotation Zrotation
												End Site
												{
													OFFSET 212.550781 0.000000 0.625752
												}
											}
										}
									}
								}
							}
						}
					}
				}
			}
		}
	}
	JOINT mixamorig:RightUpLeg
	{
		OFFSET -8.207787 -6.751648 -1.599560
		CHANNELS 6 Xposition Yposition Zposition Xrotation Yrotation Zrotation
		JOINT mixamorig:RightLeg
		{
			OFFSET -0.000002 -44.370117 0.345942
			CHANNELS 6 Xposition Yposition Zposition Xrotation Yrotation Zrotation
			JOINT mixamorig:RightFoot
			{
				OFFSET 0.000003 -44.423679 -3.043532
				CHANNELS 6 Xposition Yposition Zposition Xrotation Yrotation Zrotation
				JOINT mixamorig:RightToeBase
				{
					OFFSET -0.000002 -8.728671 10.710558
					CHANNELS 6 Xposition Yposition Zposition Xrotation Yrotation Zrotation
					JOINT mixamorig:RightToe_End
					{
						OFFSET -0.000001 -0.000679 9.278119
						CHANNELS 6 Xposition Yposition Zposition Xrotation Yrotation Zrotation
						End Site
						{
							OFFSET 0.000000 -0.067690 927.812134
						}
					}
				}
			}
		}
	}
	JOINT mixamorig:LeftUpLeg
	{
		OFFSET 8.207793 -6.751686 -1.599556
		CHANNELS 6 Xposition Yposition Zposition Xrotation Yrotation Zrotation
		JOINT mixamorig:LeftLeg
		{
			OFFSET -0.000004 -44.370014 0.346954
			CHANNELS 6 Xposition Yposition Zposition Xrotation Yrotation Zrotation
			JOINT mixamorig:LeftFoot
			{
				OFFSET -0.000001 -44.423672 -3.044401
				CHANNELS 6 Xposition Yposition Zposition Xrotation Yrotation Zrotation
				JOINT mixamorig:LeftToeBase
				{
					OFFSET -0.000002 -8.728669 10.710558
					CHANNELS 6 Xposition Yposition Zposition Xrotation Yrotation Zrotation
					JOINT mixamorig:LeftToe_End
					{
						OFFSET -0.000003 -0.000679 9.278133
						CHANNELS 6 Xposition Yposition Zposition Xrotation Yrotation Zrotation
						End Site
						{
							OFFSET 0.000000 -0.068021 927.813477
						}
					}
				}
			}
		}
	}
}
MOTION
Frames: 3
Frame Time: 0.033333
0.000006 104.270477 1.554256 0.000010 0.000003 -0.000113 -0.000005 10.181587 0.131522 0.000001 -0.000003 0.000084 -0.000000 9.893967 -1.470711 0.000001 0.000000 -0.000000 -0.000000 9.220802 -1.370642 0.000000 -0.000000 -0.000000 0.000001 16.740433 -2.049030 0.000000 -0.000000 -0.000000 0.000000 9.617859 1.685014 0.000000 0.000000 0.000000 0.000002 22.037384 7.501101 0.000000 -0.000000 0.000000 -4.569968 11.014880 -2.160881 0.000008 0.000001 -0.000038 -10.592877 -0.524702 -2.231986 74.558721 13.388752 -10.211409 -27.841537 0.000028 0.000534 121.208305 58.430417 -89.576845 -28.328793 0.000022 0.000027 -0.000320 -0.000044 0.000008 -2.464432 -1.573755 2.682325 -49.638933 -170.212904 -14.677238 -3.215265 -1.872573 1.924648 155.495991 31.886400 4.796067 -2.654954 -1.527903 1.513081 148.217564 26.435002 -39.437051 -2.018819 -1.152000 1.108065 -0.000001 -0.000002 0.000005 -9.108392 -0.517559 2.260171 106.683498 16.665417 -22.329596 -3.700071 0.000313 0.001546 103.664370 13.728294 -17.384467 -2.850077 0.000365 -0.000235 102.537129 10.016101 -12.469391 -2.772169 -0.000002 -0.000024 -0.000000 -0.000001 0.000002 -9.532597 0.000269 0.000266 98.600003 16.183464 -18.936413 -3.700080 0.000325 0.003998 98.876134 12.001680 -13.892555 -2.950048 0.000343 -0.001798 99.451707 9.798028 -11.544772 -2.946635 0.000015 -0.000154 -0.000001 0.000000 -0.000002 -9.103696 -0.042749 -1.864864 96.758604 16.502159 -18.489554 -3.379332 0.000332 -0.000781 99.340921 8.909068 -10.506297 -2.889734 0.000365 0.000668 102.543706 4.939647 -6.212615 -2.638816 -0.000027 0.000946 -0.000001 -0.000000 -0.000000 -8.076754 -0.486383 -3.806015 90.710451 15.853245 -15.897873 -3.600026 0.000286 -0.003510 93.173827 6.602321 -6.611766 -2.100009 0.000333 -0.005477 94.522906 2.521563 -2.502337 -2.115777 -0.000037 -0.003672 -0.000002 -0.000001 -0.000003 4.570446 11.014691 -2.160851 -0.000018 0.000010 -0.000021 10.592365 -0.524510 -2.232299 71.628255 2.109209 -1.522004 27.841831 0.000118 -0.000203 100.644402 -62.724906 72.611809 28.328833 -0.000029 0.000013 0.000020 -0.000089 -0.000000 2.465930 -1.576125 2.681906 -45.831635 167.648441 4.510827 3.217831 -1.871811 1.916376 156.505957 -26.873314 23.900116 2.656104 -1.528660 1.514446 139.089658 -28.040710 46.574141 2.020891 -1.154048 1.115151 -0.000002 0.000003 -0.000001 9.109374 -0.517855 2.259730 82.307919 -15.905415 13.911761 3.700049 0.000136 -0.000457 83.800438 -15.723809 14.141181 2.850059 0.000166 0.000195 81.486964 -13.269276 11.442939 2.774875 -0.000018 -0.000017 0.000001 -0.000000 -0.000001 9.533450 0.000230 -0.000092 84.630613 -15.835488 14.424518 3.700066 0.000163 -0.000394 85.779540 -14.632697 13.600221 2.950065 0.000155 -0.000201 84.084096 -16.775040 15.149554 2.952864 -0.000019 0.000061 0.000001 0.000006 0.000004 9.104583 -0.042838 -1.865229 82.870098 -15.402041 13.615256 3.150046 0.000186 -0.000091 88.087058 -14.563592 14.091995 2.950014 0.000165 -0.000093 90.078748 -14.789192 14.811135 2.644320 0.000037 0.000059 0.000002 -0.000002 -0.000001 8.077830 -0.486732 -3.806385 69.705755 -17.198954 12.445079 3.600009 0.000165 0.014596 70.829874 -13.600536 10.062662 2.100047 0.000177 0.007551 74.708759 -11.973243 9.524461 2.125499 -0.000016 0.007514 -0.000005 0.000001 -0.000001 -8.207786 -6.751667 -1.599560 -0.077001 -0.000003 0.000080 -0.000002 -44.370110 0.345938 0.153719 -0.000000 -0.000000 0.000000 -44.423679 -3.043532 -0.076700 0.000000 -0.000002 -0.000006 -8.728667 10.710559 -0.000009 -0.000000 -0.000000 -0.000001 -0.000679 9.278123 0.000000 -0.000000 -0.000000 8.207792 -6.751710 -1.599556 -0.074518 -0.000003 0.000081 -0.000002 -44.370014 0.346960 0.148822 0.000002 0.000000 -0.000001 -44.423664 -3.044403 -0.074314 0.000000 -0.000002 -0.000004 -8.728671 10.710558 0.000007 -0.000000 -0.000000 0.000000 -0.000680 9.278137 -0.000000 0.000000 -0.000001 
0.000006 104.270477 1.554256 0.000010 0.000003 -0.000113 -0.000005 10.181587 0.131522 0.000001 -0.000003 0.000084 -0.000000 9.893967 -1.470711 0.000001 0.000000 -0.000000 -0.000000 9.220802 -1.370642 0.000000 -0.000000 -0.000000 0.000001 16.740433 -2.049030 0.000000 -0.000000 -0.000000 0.000000 9.617859 1.685014 0.000000 0.000000 0.000000 0.000002 22.037384 7.501101 0.000000 -0.000000 0.000000 -4.569968 11.014880 -2.160881 0.000008 0.000001 -0.000038 -10.592875 -0.524696 -2.231990 74.029893 11.987093 -9.052071 -27.841532 -0.000003 0.000517 122.796201 60.044651 -93.326195 -28.328814 0.000008 0.000020 -0.000322 -0.000045 0.000007 -2.464420 -1.573844 2.682344 -41.530532 -158.236536 4.532189 -3.215285 -1.872587 1.924659 154.613613 31.033361 0.290306 -2.654960 -1.527890 1.513065 146.900772 27.433848 -31.891427 -2.018839 -1.152013 1.108060 -0.000003 -0.000005 0.000004 -9.108394 -0.517557 2.260159 108.904054 14.942874 -20.864141 -3.700069 0.000314 0.001558 106.966063 11.557282 -15.534702 -2.850088 0.000373 -0.000207 105.883724 8.673975 -11.468821 -2.772188 0.000002 -0.000027 -0.000000 -0.000000 -0.000002 -9.532617 0.000266 0.000263 98.201202 16.017504 -18.615385 -3.700077 0.000334 0.003999 100.335308 11.482324 -13.633130 -2.950064 0.000354 -0.001778 102.820240 10.192442 -12.744613 -2.946627 -0.000013 -0.000157 0.000001 0.000000 0.000001 -9.103718 -0.042753 -1.864876 96.187840 17.172224 -19.050748 -3.379342 0.000322 -0.000804 98.881987 9.878957 -11.552573 -2.889762 0.000346 0.000668 105.739074 6.749537 -8.967053 -2.638807 -0.000028 0.000946 0.000001 -0.000000 -0.000001 -8.076775 -0.486385 -3.806029 88.532557 17.429340 -16.847698 -3.600043 0.000305 -0.003517 91.545749 8.859433 -8.734218 -2.100019 0.000335 -0.005464 96.561192 4.748103 -5.081893 -2.115776 -0.000035 -0.003670 0.000000 0.000001 -0.000000 4.570446 11.014691 -2.160851 -0.000018 0.000010 -0.000021 10.592354 -0.524542 -2.232265 72.084655 15.870590 -11.583318 27.841839 0.000130 -0.000222 101.113499 -64.316572 74.776884 28.328808 -0.000029 0.000012 0.000020 -0.000087 0.000001 2.466155 -1.576139 2.681885 -17.823146 160.647552 -55.370810 3.217874 -1.871842 1.916409 160.149549 -21.964864 44.142444 2.656117 -1.528659 1.514482 139.687505 -27.616138 53.100944 2.020891 -1.154103 1.115146 0.000001 0.000004 0.000006 9.109382 -0.517847 2.259750 89.744977 -17.609080 17.519596 3.700045 0.000160 -0.000472 87.539290 -11.897525 11.416600 2.850049 0.000193 0.000192 84.823218 -9.257752 8.458838 2.774889 -0.000031 -0.000029 -0.000001 -0.000002 -0.000004 9.533458 0.000204 -0.000092 87.948330 -17.554134 16.936981 3.700048 0.000181 -0.000376 89.509233 -11.008236 10.912311 2.950049 0.000184 -0.000190 88.958201 -10.260048 10.078941 2.952873 -0.000029 0.000067 0.000001 0.000002 0.000000 9.104594 -0.042845 -1.865206 86.623492 -17.504718 16.518478 3.150056 0.000209 -0.000092 92.933350 -13.733287 14.449526 2.950012 0.000199 -0.000082 92.986359 -11.383833 11.990710 2.644321 0.000032 0.000053 -0.000001 -0.000001 0.000002 8.077842 -0.486740 -3.806391 74.897102 -20.144980 15.968058 3.600008 0.000159 0.014590 74.194105 -18.742403 14.641328 2.100054 0.000164 0.007552 74.254839 -13.437523 10.567997 2.125510 -0.000033 0.007518 0.000002 0.000000 0.000000 -8.207786 -6.751667 -1.599560 -0.077001 -0.000003 0.000080 -0.000002 -44.370110 0.345938 0.153719 -0.000000 -0.000000 0.000000 -44.423679 -3.043532 -0.076700 0.000000 -0.000002 -0.000006 -8.728667 10.710559 -0.000009 -0.000000 -0.000000 -0.000001 -0.000679 9.278123 0.000000 -0.000000 -0.000000 8.207792 -6.751710 -1.599556 -0.074518 -0.000003 0.000081 -0.000002 -44.370014 0.346960 0.148822 0.000002 0.000000 -0.000001 -44.423664 -3.044403 -0.074314 0.000000 -0.000002 -0.000004 -8.728671 10.710558 0.000007 -0.000000 -0.000000 0.000000 -0.000680 9.278137 -0.000000 0.000000 -0.000001 
0.000006 104.270477 1.554256 0.000010 0.000003 -0.000113 -0.000005 10.181587 0.131522 0.000001 -0.000003 0.000084 -0.000000 9.893967 -1.470711 0.000001 0.000000 -0.000000 -0.000000 9.220802 -1.370642 0.000000 -0.000000 -0.000000 0.000001 16.740433 -2.049030 0.000000 -0.000000 -0.000000 0.000000 9.617859 1.685014 0.000000 0.000000 0.000000 0.000002 22.037384 7.501101 0.000000 -0.000000 0.000000 -4.569968 11.014880 -2.160881 0.000008 0.000001 -0.000038 -10.592878 -0.524750 -2.231944 72.160908 24.801701 -18.205623 -27.841522 0.000025 0.000536 128.186764 70.821876 -111.318778 -28.328812 0.000007 0.000024 -0.000322 -0.000044 0.000006 -2.464511 -1.574053 2.682388 -6.594627 -149.681260 63.496054 -3.215283 -1.872563 1.924658 157.171286 33.191499 10.677239 -2.654967 -1.527888 1.513074 149.633626 27.117436 -30.929381 -2.018834 -1.152007 1.108062 -0.000001 -0.000001 0.000002 -9.108388 -0.517579 2.260191 114.337667 16.923595 -26.039750 -3.700067 0.000286 0.001585 112.792733 12.822818 -19.161338 -2.850078 0.000369 -0.000198 111.191675 8.763904 -12.767941 -2.772170 -0.000001 -0.000017 -0.000000 -0.000001 -0.000001 -9.532585 0.000269 0.000259 101.372022 14.375001 -17.679586 -3.700063 0.000350 0.004005 103.131232 9.436047 -11.759380 -2.950042 0.000350 -0.001769 103.099691 8.820055 -11.086690 -2.946638 -0.000012 -0.000158 0.000000 0.000001 -0.000001 -9.103694 -0.042744 -1.864853 98.926343 14.641830 -17.036302 -3.379324 0.000330 -0.000784 101.753331 9.316222 -11.462427 -2.889757 0.000358 0.000660 104.083559 6.949641 -8.959943 -2.638815 -0.000015 0.000939 -0.000001 0.000001 -0.000001 -8.076743 -0.486386 -3.806019 90.582618 15.315205 -15.320347 -3.600042 0.000288 -0.003498 92.674138 9.324935 -9.392591 -2.100004 0.000327 -0.005477 95.200317 6.069356 -6.403984 -2.115772 -0.000071 -0.003678 -0.000005 -0.000001 -0.000005 4.570446 11.014691 -2.160851 -0.000018 0.000010 -0.000021 10.592362 -0.524528 -2.232297 68.452764 6.035480 -4.107743 27.841824 0.000082 -0.000199 102.240835 -68.530157 80.389892 28.328848 -0.000028 0.000025 0.000022 -0.000089 -0.000000 2.466272 -1.576027 2.681818 10.311921 171.160060 -107.105501 3.217866 -1.871880 1.916434 158.933666 -20.246327 52.883686 2.656090 -1.528668 1.514478 140.896653 -27.320164 51.069283 2.020895 -1.154073 1.115158 -0.000000 -0.000000 0.000001 9.109394 -0.517838 2.259742 99.068561 -17.995385 21.016540 3.700044 0.000193 -0.000462 93.996476 -12.106042 12.992057 2.850048 0.000216 0.000202 91.717488 -10.302896 10.613377 2.774873 -0.000046 -0.000023 0.000003 -0.000002 -0.000000 9.533468 0.000191 -0.000082 85.024374 -18.945365 17.384447 3.700057 0.000172 -0.000380 86.185417 -11.649550 10.900862 2.950027 0.000164 -0.000216 85.845793 -10.203902 9.495695 2.952862 -0.000029 0.000066 0.000000 0.000003 0.000001 9.104596 -0.042872 -1.865224 82.973862 -18.611017 16.491328 3.150064 0.000163 -0.000094 85.069173 -14.747557 13.543566 2.950025 0.000167 -0.000072 84.619337 -11.615389 10.580578 2.644310 0.000030 0.000053 -0.000001 -0.000002 -0.000000 8.077841 -0.486765 -3.806397 68.326945 -22.330346 15.693664 3.599989 0.000118 0.014582 67.370520 -20.173655 13.899928 2.100050 0.000136 0.007533 68.308838 -14.170963 9.982867 2.125503 -0.000030 0.007520 0.000004 -0.000002 0.000000 -8.207786 -6.751667 -1.599560 -0.077001 -0.000003 0.000080 -0.000002 -44.370110 0.345938 0.153719 -0.000000 -0.000000 0.000000 -44.423679 -3.043532 -0.076700 0.000000 -0.000002 -0.000006 -8.728667 10.710559 -0.000009 -0.000000 -0.000000 -0.000001 -0.000679 9.278123 0.000000 -0.000000 -0.000000 8.207792 -6.751710 -1.599556 -0.074518 -0.000003 0.000081 -0.000002 -44.370014 0.346960 0.148822 0.000002 0.000000 -0.000001 -44.423664 -3.044403 -0.074314 0.000000 -0.000002 -0.000004 -8.728671 10.710558 0.000007 -0.000000 -0.000000 0.000000 -0.000680 9.278137 -0.000000 0.000000 -0.000001 
